<svg xmlns="http://www.w3.org/2000/svg" xmlns:xlink="http://www.w3.org/1999/xlink" id="Ebene_1" x="0" y="0" version="1.1" viewBox="0 0 8.63 34.83" xml:space="preserve" style="enable-background:new 0 0 8.63 34.83"><style type="text/css">.hamburger-svg-1{fill:#e00082}.hamburger-svg-2{fill:#c4c4c4}.hamburger-svg-3{fill:url(#XMLID_63_)}</style><g id="XMLID_1_"><path id="XMLID_12_" d="M4.31,8.63C1.94,8.63,0,6.69,0,4.31S1.94,0,4.31,0s4.31,1.94,4.31,4.31S6.69,8.63,4.31,8.63z M4.31,2C3.04,2,2,3.04,2,4.31s1.04,2.31,2.31,2.31s2.31-1.04,2.31-2.31S5.59,2,4.31,2z" class="hamburger-svg-1"/><path id="XMLID_15_" d="M5.31,26.33V21.6c1.9-0.45,3.31-2.15,3.31-4.19c0-2.38-1.94-4.31-4.31-4.31S0,15.03,0,17.41 c0,2.03,1.42,3.73,3.31,4.19v4.74C1.42,26.79,0,28.49,0,30.52c0,2.38,1.94,4.31,4.31,4.31s4.31-1.94,4.31-4.31 C8.63,28.49,7.21,26.79,5.31,26.33z M2,17.41c0-1.28,1.04-2.31,2.31-2.31s2.31,1.04,2.31,2.31s-1.04,2.31-2.31,2.31 S2,18.69,2,17.41z M4.31,32.83C3.04,32.83,2,31.8,2,30.52s1.04-2.31,2.31-2.31s2.31,1.04,2.31,2.31S5.59,32.83,4.31,32.83z" class="hamburger-svg-2"/><linearGradient id="XMLID_63_" x1="4.314" x2="4.314" y1="13.29" y2="8.352" gradientUnits="userSpaceOnUse"><stop offset="0" style="stop-color:#c4c4c4"/><stop offset="1" style="stop-color:#e00082"/></linearGradient><rect id="XMLID_5_" width="2" height="4.94" x="3.31" y="8.35" class="hamburger-svg-3"/></g></svg>