<svg xmlns="http://www.w3.org/2000/svg" xmlns:xlink="http://www.w3.org/1999/xlink" width="280" height="280" version="1.1" viewBox="0 0 280 280"><g id="Page-2" fill="none" fill-rule="evenodd" stroke="none" stroke-width="1"><g id="vulcan-logo-border-2" transform="translate(14.000000, 40.000000)"><path id="Combined-Shape" fill="#313F4F" fill-rule="nonzero" d="M28,20 L78.1255176,180.75571 L173.874482,180.75571 L224,20 L161.499399,20 L126.052169,135.629899 L90.6049389,20 L28,20 Z M146.711875,7.10542736e-15 L251.185951,7.10542736e-15 L188.587964,200.75571 L63.4120358,200.75571 L0.814048637,1.0658141e-14 L105.392463,0 L126.052169,67.392565 L146.711875,7.10542736e-15 Z"/><g id="vulcan-logo-copy" transform="translate(36.000000, 25.000000)"><polygon id="Rectangle-3" fill="#F44A06" points="0 0 20.372 0 67.152 150 46.78 150"/><polygon id="Rectangle-3-Copy" fill="#FDAE1B" points="27.162 0 47.534 0 94.314 150 73.942 150"/><polygon id="Rectangle-3" fill="#FBDA15" points="112.314 0 132.686 0 179.466 150 159.094 150" transform="translate(145.889865, 75.000000) scale(-1, 1) translate(-145.889865, -75.000000)"/><polygon id="Rectangle-3-Copy" fill="#FDAE1B" points="85.152 0 105.523 0 152.303 150 131.932 150" transform="translate(118.727472, 75.000000) scale(-1, 1) translate(-118.727472, -75.000000)"/></g></g></g></svg>